<svg width="40" height="43" viewBox="0 0 40 43" fill="none" xmlns="http://www.w3.org/2000/svg">
<mask id="mask0_392_960" style="mask-type:alpha" maskUnits="userSpaceOnUse" x="2" y="6" width="37" height="37">
<path d="M20.1819 42.1937C30.0577 42.1937 38.0636 34.0977 38.0636 24.1108C38.0636 14.1238 30.0577 6.02783 20.1819 6.02783C10.3062 6.02783 2.30029 14.1238 2.30029 24.1108C2.30029 34.0977 10.3062 42.1937 20.1819 42.1937Z" fill="white"/>
</mask>
<g mask="url(#mask0_392_960)">
<path d="M20.1819 42.1937C30.0577 42.1937 38.0636 34.0977 38.0636 24.1108C38.0636 14.1238 30.0577 6.02783 20.1819 6.02783C10.3062 6.02783 2.30029 14.1238 2.30029 24.1108C2.30029 34.0977 10.3062 42.1937 20.1819 42.1937Z" fill="#E6E6E6"/>
<path d="M38.0636 6.02783H2.30029V42.1937H38.0636V6.02783Z" fill="#65C9FF"/>
</g>
<mask id="mask1_392_960" style="mask-type:alpha" maskUnits="userSpaceOnUse" x="0" y="0" width="40" height="43">
<path d="M2.29988 24.1106C2.29988 34.0975 10.3058 42.1936 20.1815 42.1936C30.0573 42.1936 38.0631 34.0975 38.0631 24.1106H39.8513V0H0.511719V24.1106H2.29988Z" fill="white"/>
</mask>
<g mask="url(#mask1_392_960)">
<mask id="mask2_392_960" style="mask-type:alpha" maskUnits="userSpaceOnUse" x="5" y="5" width="31" height="38">
<path d="M23.758 27.2159V29.987H24.354C30.2795 29.987 35.083 34.8446 35.083 40.8368V42.193H5.28027V40.8368C5.28027 34.8446 10.0838 29.987 16.0093 29.987H16.6053V27.2159C14.0367 25.982 12.1904 23.4601 11.8823 20.4755C11.0144 20.3515 10.3467 19.5971 10.3467 18.6851V16.5755C10.3467 15.6795 10.9912 14.9357 11.8369 14.7922V13.863C11.8369 9.20246 15.573 5.42432 20.1816 5.42432C24.7903 5.42432 28.5264 9.20246 28.5264 13.863V14.7922C29.3721 14.9357 30.0165 15.6795 30.0165 16.5755V18.6851C30.0165 19.5971 29.3489 20.3515 28.4809 20.4755C28.1729 23.4601 26.3266 25.982 23.758 27.2159Z" fill="white"/>
</mask>
<g mask="url(#mask2_392_960)">
<path d="M23.758 27.2159V29.987H24.354C30.2795 29.987 35.083 34.8446 35.083 40.8368V42.193H5.28027V40.8368C5.28027 34.8446 10.0838 29.987 16.0093 29.987H16.6053V27.2159C14.0367 25.982 12.1904 23.4601 11.8823 20.4755C11.0144 20.3515 10.3467 19.5971 10.3467 18.6851V16.5755C10.3467 15.6795 10.9912 14.9357 11.8369 14.7922V13.863C11.8369 9.20246 15.573 5.42432 20.1816 5.42432C24.7903 5.42432 28.5264 9.20246 28.5264 13.863V14.7922C29.3721 14.9357 30.0165 15.6795 30.0165 16.5755V18.6851C30.0165 19.5971 29.3489 20.3515 28.4809 20.4755C28.1729 23.4601 26.3266 25.982 23.758 27.2159Z" fill="#D0C6AC"/>
<path d="M44.6199 5.42432H5.28027V47.6179H44.6199V5.42432Z" fill="#FFDBB4"/>
<path fill-rule="evenodd" clip-rule="evenodd" d="M28.5264 17.3291V20.795C28.5264 25.4556 24.7904 29.2337 20.1817 29.2337C15.573 29.2337 11.8369 25.4556 11.8369 20.795V17.3291V19.5895C11.8369 24.25 15.573 28.0282 20.1817 28.0282C24.7904 28.0282 28.5264 24.25 28.5264 19.5895V17.3291Z" fill="black" fill-opacity="0.1"/>
</g>
<mask id="mask3_392_960" style="mask-type:alpha" maskUnits="userSpaceOnUse" x="5" y="29" width="31" height="14">
<path fill-rule="evenodd" clip-rule="evenodd" d="M16.1869 29.9956H16.0093C10.0838 29.9956 5.28027 34.8532 5.28027 40.8454V42.1938H35.083V40.8454C35.083 34.8532 30.2795 29.9956 24.354 29.9956H24.1763C24.1953 30.1438 24.205 30.2947 24.205 30.4477C24.205 32.5283 22.4037 34.215 20.1816 34.215C17.9596 34.215 16.1583 32.5283 16.1583 30.4477C16.1583 30.2947 16.168 30.1438 16.1869 29.9956Z" fill="white"/>
</mask>
<g mask="url(#mask3_392_960)">
<path fill-rule="evenodd" clip-rule="evenodd" d="M16.1869 29.9956H16.0093C10.0838 29.9956 5.28027 34.8532 5.28027 40.8454V42.1938H35.083V40.8454C35.083 34.8532 30.2795 29.9956 24.354 29.9956H24.1763C24.1953 30.1438 24.205 30.2947 24.205 30.4477C24.205 32.5283 22.4037 34.215 20.1816 34.215C17.9596 34.215 16.1583 32.5283 16.1583 30.4477C16.1583 30.2947 16.168 30.1438 16.1869 29.9956Z" fill="#E6E6E6"/>
<path d="M39.8508 25.6172H0.51123V42.1932H39.8508V25.6172Z" fill="#262E33"/>
<path fill-rule="evenodd" clip-rule="evenodd" d="M15.5301 30.0068C9.82702 30.2603 5.28027 35.0162 5.28027 40.846V42.1944H15.6161C15.1093 40.3741 14.8171 38.2325 14.8171 35.9407C14.8171 33.7818 15.0764 31.7562 15.5301 30.0068ZM24.8962 42.1944H35.083V40.846C35.083 35.0677 30.6163 30.3445 24.9842 30.0146C25.4366 31.7622 25.6951 33.785 25.6951 35.9407C25.6951 38.2325 25.403 40.3741 24.8962 42.1944Z" fill="#3A4C5A"/>
<path fill-rule="evenodd" clip-rule="evenodd" d="M27.4829 38.5775L28.9069 37.4975C29.1219 37.3344 29.4183 37.337 29.6304 37.5039L30.6122 38.2761L27.4829 38.5775Z" fill="#E6E6E6"/>
<path fill-rule="evenodd" clip-rule="evenodd" d="M15.5623 29.8374C14.9662 32.7508 15.2146 36.8697 16.3073 42.1941H13.9231L11.8369 36.7692L12.731 35.413L11.8369 34.5088L14.6682 29.9881C14.9703 29.893 15.2683 29.8428 15.5623 29.8374Z" fill="#2F4351"/>
<path fill-rule="evenodd" clip-rule="evenodd" d="M24.801 29.8374C25.3971 32.7508 25.1487 36.8697 24.056 42.1941H26.4402L28.5264 36.7692L27.6323 35.413L28.5264 34.5088L25.6951 29.9881C25.393 29.893 25.0949 29.8428 24.801 29.8374Z" fill="#2F4351"/>
<path fill-rule="evenodd" clip-rule="evenodd" d="M23.7581 28.8633C24.7673 29.556 25.3973 30.5386 25.3973 31.6283C25.3973 32.7435 24.7374 33.7465 23.6866 34.4415L22.8013 33.7363L22.119 33.7862L22.268 33.3113L22.2564 33.3021C23.1654 32.8286 23.7581 32.0521 23.7581 31.1746V28.8633ZM16.6055 28.8633C15.5963 29.556 14.9663 30.5386 14.9663 31.6283C14.9663 32.7435 15.6261 33.7465 16.677 34.4415L17.5622 33.7363L18.2446 33.7862L18.0956 33.3113L18.1072 33.3021C17.1982 32.8286 16.6055 32.0521 16.6055 31.1746V28.8633Z" fill="#F2F2F2"/>
</g>
<path fill-rule="evenodd" clip-rule="evenodd" d="M18.0952 24.563C18.0952 23.3978 19.0292 22.4533 20.1814 22.4533C21.3336 22.4533 22.2676 23.3978 22.2676 24.563" fill="black" fill-opacity="0.7"/>
<path fill-rule="evenodd" clip-rule="evenodd" d="M18.3931 19.5903C18.3931 20.2561 19.1937 20.7959 20.1812 20.7959C21.1688 20.7959 21.9694 20.2561 21.9694 19.5903" fill="black" fill-opacity="0.16"/>
<path d="M16.3072 17.7819C16.801 17.7819 17.2012 17.3771 17.2012 16.8778C17.2012 16.3784 16.801 15.9736 16.3072 15.9736C15.8134 15.9736 15.4131 16.3784 15.4131 16.8778C15.4131 17.3771 15.8134 17.7819 16.3072 17.7819Z" fill="black" fill-opacity="0.6"/>
<path d="M24.0557 17.7819C24.5495 17.7819 24.9498 17.3771 24.9498 16.8778C24.9498 16.3784 24.5495 15.9736 24.0557 15.9736C23.5619 15.9736 23.1616 16.3784 23.1616 16.8778C23.1616 17.3771 23.5619 17.7819 24.0557 17.7819Z" fill="black" fill-opacity="0.6"/>
<path d="M14.2165 14.938C14.4393 13.503 16.315 12.5241 17.6718 13.1558C17.8213 13.2254 17.9983 13.1593 18.0672 13.0081C18.136 12.8569 18.0706 12.6779 17.9211 12.6083C16.2093 11.8112 13.9125 13.0099 13.6277 14.8445C13.6021 15.009 13.7133 15.1632 13.8759 15.189C14.0385 15.2148 14.191 15.1025 14.2165 14.938Z" fill="black" fill-opacity="0.6"/>
<path d="M26.1448 14.938C25.922 13.503 24.0463 12.5241 22.6895 13.1558C22.54 13.2254 22.363 13.1593 22.2942 13.0081C22.2253 12.8569 22.2907 12.6779 22.4402 12.6083C24.152 11.8112 26.4488 13.0099 26.7337 14.8445C26.7592 15.009 26.6481 15.1632 26.4855 15.189C26.3229 15.2148 26.1703 15.1025 26.1448 14.938Z" fill="black" fill-opacity="0.6"/>
<mask id="mask4_392_960" style="mask-type:alpha" maskUnits="userSpaceOnUse" x="0" y="0" width="40" height="43">
<path d="M39.8508 0H0.51123V42.1936H39.8508V0Z" fill="white"/>
</mask>
<g mask="url(#mask4_392_960)">
<mask id="mask5_392_960" style="mask-type:alpha" maskUnits="userSpaceOnUse" x="10" y="0" width="21" height="12">
<path fill-rule="evenodd" clip-rule="evenodd" d="M29.3693 6.38304C29.7866 7.43804 30.0161 8.58951 30.0161 9.79519V11.0007H10.3463V9.79519C10.3463 8.58587 10.5773 7.4311 10.997 6.3735C10.0428 4.34476 9.8575 2.67846 10.4411 1.37461C11.5595 1.03153 12.8549 1.30371 14.3273 2.19116C15.7833 1.18888 17.5421 0.603027 19.4362 0.603027H20.9263C22.8221 0.603027 24.5823 1.18991 26.039 2.19382C27.5133 1.30425 28.8102 1.03118 29.9296 1.37461C30.5142 2.68051 30.3274 4.34998 29.3693 6.38304Z" fill="white"/>
</mask>
<g mask="url(#mask5_392_960)">
<path fill-rule="evenodd" clip-rule="evenodd" d="M29.3693 6.38304C29.7866 7.43804 30.0161 8.58951 30.0161 9.79519V11.0007H10.3463V9.79519C10.3463 8.58587 10.5773 7.4311 10.997 6.3735C10.0428 4.34476 9.8575 2.67846 10.4411 1.37461C11.5595 1.03153 12.8549 1.30371 14.3273 2.19116C15.7833 1.18888 17.5421 0.603027 19.4362 0.603027H20.9263C22.8221 0.603027 24.5823 1.18991 26.039 2.19382C27.5133 1.30425 28.8102 1.03118 29.9296 1.37461C30.5142 2.68051 30.3274 4.34998 29.3693 6.38304Z" fill="#D8D8D8"/>
<path d="M49.3884 0.603027H10.0488V42.7966H49.3884V0.603027Z" fill="#25557C"/>
</g>
<mask id="mask6_392_960" style="mask-type:alpha" maskUnits="userSpaceOnUse" x="10" y="1" width="21" height="6">
<path fill-rule="evenodd" clip-rule="evenodd" d="M14.3273 2.19099C12.8436 3.21239 11.6744 4.66627 10.997 6.37333C10.0428 4.34459 9.8575 2.67829 10.4411 1.37444C11.5595 1.03136 12.8549 1.30354 14.3273 2.19099L14.3273 2.19099ZM29.3693 6.38286C28.693 4.67316 27.5237 3.21682 26.039 2.19365C27.5133 1.30408 28.8102 1.03101 29.9296 1.37444C30.5142 2.68033 30.3274 4.34981 29.3693 6.38286Z" fill="white"/>
</mask>
<g mask="url(#mask6_392_960)">
<path fill-rule="evenodd" clip-rule="evenodd" d="M14.3273 2.19099C12.8436 3.21239 11.6744 4.66627 10.997 6.37333C10.0428 4.34459 9.8575 2.67829 10.4411 1.37444C11.5595 1.03136 12.8549 1.30354 14.3273 2.19099L14.3273 2.19099ZM29.3693 6.38286C28.693 4.67316 27.5237 3.21682 26.039 2.19365C27.5133 1.30408 28.8102 1.03101 29.9296 1.37444C30.5142 2.68033 30.3274 4.34981 29.3693 6.38286Z" fill="black" fill-opacity="0.24"/>
</g>
<mask id="mask7_392_960" style="mask-type:alpha" maskUnits="userSpaceOnUse" x="11" y="2" width="19" height="4">
<path fill-rule="evenodd" clip-rule="evenodd" d="M13.3061 3.00803C12.6396 3.62397 12.0641 4.33897 11.6025 5.12998C11.1665 3.90812 11.0919 3.06263 11.3787 2.59348C11.7737 2.42071 12.4162 2.55889 13.3061 3.00803ZM28.7276 5.07471C28.2695 4.30208 27.7023 3.60316 27.0475 2.99969C27.9122 2.56996 28.5385 2.4399 28.9263 2.6095C29.2074 3.06947 29.1412 3.8912 28.7276 5.07471Z" fill="white"/>
</mask>
<g mask="url(#mask7_392_960)">
<path fill-rule="evenodd" clip-rule="evenodd" d="M13.3061 3.00755C12.6396 3.62349 12.0641 4.33848 11.6025 5.12949C11.1665 3.90764 11.0919 3.06214 11.3787 2.59299C11.7737 2.42022 12.4162 2.55841 13.3061 3.00755ZM28.7276 5.07422C28.2695 4.30159 27.7023 3.60267 27.0475 2.9992C27.9122 2.56947 28.5385 2.43941 28.9263 2.60902C29.2074 3.06898 29.1412 3.89071 28.7276 5.07422Z" fill="white" fill-opacity="0.3"/>
</g>
<path fill-rule="evenodd" clip-rule="evenodd" d="M10.3894 9.26064C12.7654 7.50745 16.0332 6.63086 20.1927 6.63086C24.352 6.63086 27.6134 7.50736 29.9767 9.26037V9.26037C30.2829 9.48746 30.4638 9.84847 30.4638 10.2324V14.8239C30.4638 15.1568 30.1969 15.4267 29.8677 15.4267C29.7551 15.4267 29.6449 15.3944 29.5496 15.3337C27.0697 13.7511 23.9871 12.9599 20.3017 12.9599C16.5881 12.9599 13.4226 13.7633 10.8053 15.3701C10.5239 15.5429 10.1573 15.4522 9.98644 15.1676C9.92984 15.0734 9.8999 14.9652 9.8999 14.8549L9.8999 10.2345C9.8999 9.84946 10.0818 9.48758 10.3894 9.26064Z" fill="black"/>
<path fill-rule="evenodd" clip-rule="evenodd" d="M10.3894 9.26064C12.7654 7.50745 16.0332 6.63086 20.1927 6.63086C24.352 6.63086 27.6134 7.50736 29.9767 9.26037V9.26037C30.2829 9.48746 30.4638 9.84847 30.4638 10.2324V14.8239C30.4638 15.1568 30.1969 15.4267 29.8677 15.4267C29.7551 15.4267 29.6449 15.3944 29.5496 15.3337C27.0697 13.7511 23.9871 12.9599 20.3017 12.9599C16.5881 12.9599 13.4226 13.7633 10.8053 15.3701C10.5239 15.5429 10.1573 15.4522 9.98644 15.1676C9.92984 15.0734 9.8999 14.9652 9.8999 14.8549L9.8999 10.2345C9.8999 9.84946 10.0818 9.48758 10.3894 9.26064Z" fill="#F4F4F4"/>
<g filter="url(#filter0_d_392_960)">
<path fill-rule="evenodd" clip-rule="evenodd" d="M21.5922 15.2796C22.1756 14.0838 23.3934 13.2612 24.8012 13.2612C26.1304 13.2612 27.2902 13.9945 27.9067 15.0828C27.938 15.0741 27.971 15.0695 28.005 15.0695H29.1971C29.4029 15.0695 29.5697 15.2382 29.5697 15.4463C29.5697 15.6543 29.4029 15.823 29.1971 15.823H28.223C28.3235 16.1567 28.3776 16.5109 28.3776 16.8778C28.3776 18.8752 26.7764 20.4944 24.8012 20.4944C22.8261 20.4944 21.2249 18.8752 21.2249 16.8778C21.2249 16.6636 21.2433 16.4536 21.2787 16.2496C21.2661 15.5902 20.765 15.0695 20.1613 15.0695C19.6045 15.0695 19.1349 15.5125 19.0555 16.0988C19.11 16.3497 19.1387 16.6104 19.1387 16.8778C19.1387 18.8752 17.5375 20.4944 15.5624 20.4944C13.5872 20.4944 11.9861 18.8752 11.9861 16.8778C11.9861 16.5109 12.0401 16.1567 12.1406 15.823H11.1665C10.9607 15.823 10.7939 15.6543 10.7939 15.4463C10.7939 15.2382 10.9607 15.0695 11.1665 15.0695H12.3586C12.3926 15.0695 12.4256 15.0741 12.4569 15.0828C13.0734 13.9945 14.2332 13.2612 15.5624 13.2612C16.956 13.2612 18.1634 14.0673 18.7536 15.2436C19.0631 14.7741 19.5782 14.4668 20.1613 14.4668C20.7592 14.4668 21.2856 14.7899 21.5922 15.2796ZM15.5624 19.8916C17.2083 19.8916 18.5427 18.5423 18.5427 16.8778C18.5427 15.2133 17.2083 13.864 15.5624 13.864C13.9164 13.864 12.5821 15.2133 12.5821 16.8778C12.5821 18.5423 13.9164 19.8916 15.5624 19.8916ZM24.8012 19.8916C26.4472 19.8916 27.7815 18.5423 27.7815 16.8778C27.7815 15.2133 26.4472 13.864 24.8012 13.864C23.1553 13.864 21.821 15.2133 21.821 16.8778C21.821 18.5423 23.1553 19.8916 24.8012 19.8916Z" fill="black"/>
</g>
<path fill-rule="evenodd" clip-rule="evenodd" d="M21.5922 15.2796C22.1756 14.0838 23.3934 13.2612 24.8012 13.2612C26.1304 13.2612 27.2902 13.9945 27.9067 15.0828C27.938 15.0741 27.971 15.0695 28.005 15.0695H29.1971C29.4029 15.0695 29.5697 15.2382 29.5697 15.4463C29.5697 15.6543 29.4029 15.823 29.1971 15.823H28.223C28.3235 16.1567 28.3776 16.5109 28.3776 16.8778C28.3776 18.8752 26.7764 20.4944 24.8012 20.4944C22.8261 20.4944 21.2249 18.8752 21.2249 16.8778C21.2249 16.6636 21.2433 16.4536 21.2787 16.2496C21.2661 15.5902 20.765 15.0695 20.1613 15.0695C19.6045 15.0695 19.1349 15.5125 19.0555 16.0988C19.11 16.3497 19.1387 16.6104 19.1387 16.8778C19.1387 18.8752 17.5375 20.4944 15.5624 20.4944C13.5872 20.4944 11.9861 18.8752 11.9861 16.8778C11.9861 16.5109 12.0401 16.1567 12.1406 15.823H11.1665C10.9607 15.823 10.7939 15.6543 10.7939 15.4463C10.7939 15.2382 10.9607 15.0695 11.1665 15.0695H12.3586C12.3926 15.0695 12.4256 15.0741 12.4569 15.0828C13.0734 13.9945 14.2332 13.2612 15.5624 13.2612C16.956 13.2612 18.1634 14.0673 18.7536 15.2436C19.0631 14.7741 19.5782 14.4668 20.1613 14.4668C20.7592 14.4668 21.2856 14.7899 21.5922 15.2796ZM15.5624 19.8916C17.2083 19.8916 18.5427 18.5423 18.5427 16.8778C18.5427 15.2133 17.2083 13.864 15.5624 13.864C13.9164 13.864 12.5821 15.2133 12.5821 16.8778C12.5821 18.5423 13.9164 19.8916 15.5624 19.8916ZM24.8012 19.8916C26.4472 19.8916 27.7815 18.5423 27.7815 16.8778C27.7815 15.2133 26.4472 13.864 24.8012 13.864C23.1553 13.864 21.821 15.2133 21.821 16.8778C21.821 18.5423 23.1553 19.8916 24.8012 19.8916Z" fill="#252C2F"/>
</g>
</g>
<defs>
<filter id="filter0_d_392_960" x="6.79395" y="11.2612" width="26.7759" height="15.2334" filterUnits="userSpaceOnUse" color-interpolation-filters="sRGB">
<feFlood flood-opacity="0" result="BackgroundImageFix"/>
<feColorMatrix in="SourceAlpha" type="matrix" values="0 0 0 0 0 0 0 0 0 0 0 0 0 0 0 0 0 0 127 0" result="hardAlpha"/>
<feOffset dy="2"/>
<feGaussianBlur stdDeviation="2"/>
<feColorMatrix type="matrix" values="0 0 0 0 0 0 0 0 0 0 0 0 0 0 0 0 0 0 0.1 0"/>
<feBlend mode="normal" in2="BackgroundImageFix" result="effect1_dropShadow_392_960"/>
<feBlend mode="normal" in="SourceGraphic" in2="effect1_dropShadow_392_960" result="shape"/>
</filter>
</defs>
</svg>
